<svg id="Logo" xmlns="http://www.w3.org/2000/svg" viewBox="0 0 75 75"><defs><style>.cls-1{fill-rule:evenodd;}.cls-2{fill:#f4146b;}</style></defs><g id="Logo-2" data-name="Logo"><polygon class="cls-1" points="53.296 59.991 53.296 28.275 28.271 28.275 28.271 9.932 9.932 9.932 9.932 64.957 28.271 64.957 28.271 56.546 33.237 56.546 33.237 69.923 4.966 69.923 4.966 4.966 33.237 4.966 33.237 23.309 53.296 23.309 56.544 23.309 58.263 23.309 58.263 59.991 53.296 59.991 53.296 59.991"/><polygon class="cls-1" points="28.271 34.961 46.61 34.961 46.61 39.927 28.271 39.927 28.271 34.961 28.271 34.961"/><polygon class="cls-1" points="21.585 14.898 21.585 46.614 46.61 46.614 46.61 64.957 64.95 64.957 64.95 9.932 46.61 9.932 46.61 18.343 41.644 18.343 41.644 4.966 69.916 4.966 69.916 69.923 41.644 69.923 41.644 51.58 21.585 51.58 18.161 51.58 16.619 51.58 16.619 14.898 21.585 14.898 21.585 14.898"/></g><rect id="Circle" class="cls-2" x="50.093" y="50.514" width="11.386" height="11.386" rx="5.693"/></svg>